<mxfile host="app.diagrams.net" modified="2023-10-27T02:37:41.819Z" agent="Mozilla/5.0 (Macintosh; Intel Mac OS X 10_15_7) AppleWebKit/537.36 (KHTML, like Gecko) Chrome/117.0.0.0 Safari/537.36" version="21.6.5" etag="IPUIzEQtM2j2BwP-Ck9-" type="github">
  <diagram name="Page-1" id="keSVTd9kfd8ZhTt6nb12">
    <mxGraphModel>
      <root>
        <mxCell id="0" />
        <mxCell id="1" parent="0" />
      </root>
    </mxGraphModel>
  </diagram>
</mxfile>
